<svg width="5831" height="2919" xmlns="http://www.w3.org/2000/svg" xmlns:xlink="http://www.w3.org/1999/xlink" xml:space="preserve" overflow="hidden"><defs><filter id="fx0" x="-10%" y="-10%" width="120%" height="120%" filterUnits="userSpaceOnUse" primitiveUnits="userSpaceOnUse"><feComponentTransfer color-interpolation-filters="sRGB"><feFuncR type="discrete" tableValues="0.929412 0.929412"/><feFuncG type="discrete" tableValues="0.490196 0.490196"/><feFuncB type="discrete" tableValues="0.192157 0.192157"/><feFuncA type="linear" slope="1" intercept="0"/></feComponentTransfer><feGaussianBlur stdDeviation="0 0"/></filter><filter id="fx1" x="-10%" y="-10%" width="120%" height="120%" filterUnits="userSpaceOnUse" primitiveUnits="userSpaceOnUse"><feComponentTransfer color-interpolation-filters="sRGB"><feFuncR type="discrete" tableValues="0.219608 0.219608"/><feFuncG type="discrete" tableValues="0.341176 0.341176"/><feFuncB type="discrete" tableValues="0.137255 0.137255"/><feFuncA type="linear" slope="1" intercept="0"/></feComponentTransfer><feGaussianBlur stdDeviation="0 0"/></filter><filter id="fx2" x="-10%" y="-10%" width="120%" height="120%" filterUnits="userSpaceOnUse" primitiveUnits="userSpaceOnUse"><feComponentTransfer color-interpolation-filters="sRGB"><feFuncR type="discrete" tableValues="0.12549 0.12549"/><feFuncG type="discrete" tableValues="0.219608 0.219608"/><feFuncB type="discrete" tableValues="0.392157 0.392157"/><feFuncA type="linear" slope="1" intercept="0"/></feComponentTransfer><feGaussianBlur stdDeviation="0 0"/></filter><clipPath id="clip3"><rect x="1" y="1" width="717" height="241"/></clipPath><clipPath id="clip4"><rect x="1" y="0" width="727" height="238"/></clipPath></defs><g transform="translate(-674 -210)"><path d="M674 343.749C674 269.881 733.881 210 807.748 210L6371.25 210C6445.12 210 6505 269.881 6505 343.749L6505 2995.25C6505 3069.12 6445.12 3129 6371.25 3129L807.748 3129C733.881 3129 674 3069.12 674 2995.25Z" fill="#E7E6E6" fill-rule="evenodd"/><path d="M0 177.193C-4.39709e-14 79.3319 79.3319-4.39708e-14 177.193-4.39708e-14L885.937 0C983.798-4.39708e-14 1063.13 79.3319 1063.13 177.193L1063.13 2585.81C1063.13 2683.67 983.798 2763 885.937 2763L177.193 2763C79.3319 2763-2.19854e-14 2683.67-2.19854e-14 2585.81Z" fill="#4472C4" fill-rule="evenodd" fill-opacity="0.501961" transform="matrix(-1 0 0 1 6381 297)"/><path d="M2370 485.009C2370 377.309 2457.31 290 2565.01 290L4982.99 290C5090.69 290 5178 377.309 5178 485.009L5178 2864.99C5178 2972.69 5090.69 3060 4982.99 3060L2565.01 3060C2457.31 3060 2370 2972.69 2370 2864.99Z" fill="#70AD47" fill-rule="evenodd" fill-opacity="0.501961"/><path d="M804 534.003C804 403.11 910.11 297 1041 297L1989 297C2119.89 297 2226 403.11 2226 534.003L2226 2823C2226 2953.89 2119.89 3060 1989 3060L1041 3060C910.11 3060 804 2953.89 804 2823Z" fill="#FFC000" fill-rule="evenodd" fill-opacity="0.501961"/><g clip-path="url(#clip3)" filter="url(#fx0)" transform="translate(1126 384)"><g><path d="M547.302 133.137C555.213 134.267 563.811 135.034 573.095 135.438L690.677 135.438C700.768 135.034 709.365 134.267 716.47 133.137L716.47 156.266C705.813 155.055 697.216 154.288 690.677 153.965L614.509 153.965 627.95 159.656C630.937 161.029 632.269 162.643 631.946 164.5 631.381 166.357 629.363 167.568 625.892 168.133 622.743 168.456 620.2 170.03 618.263 172.855 611.966 180.848 604.095 190.454 594.649 201.676 616.85 200.142 639.858 198.729 663.673 197.438 658.102 190.656 651.967 183.633 645.267 176.367L663.673 162.926C681.433 182.301 697.216 201.393 711.02 220.203L691.645 235.582C687.125 228.639 682.483 221.777 677.72 214.996 607.647 219.355 570.229 224.24 565.466 229.648L556.747 205.309C566.112 202.483 573.458 197.599 578.786 190.656 588.312 178.789 596.183 166.559 602.399 153.965L573.095 153.965C567.767 154.126 559.169 154.893 547.302 156.266ZM134.403 96.6875 134.403 130.957 185.989 130.957 185.989 96.6875ZM60.2939 96.6875 60.2939 130.957 111.638 130.957 111.638 96.6875ZM562.196 94.2656C571.399 95.2344 580.158 95.8802 588.474 96.2031L672.028 96.2031C680.666 95.8802 689.425 95.2344 698.306 94.2656L698.306 117.031C687.326 115.82 678.567 115.094 672.028 114.852L588.474 114.852C582.742 115.094 573.983 115.82 562.196 117.031ZM316.165 69.4414 316.165 119.09 428.782 119.09 428.782 69.4414ZM545.122 37.7149 545.122 56 673.602 56 673.602 37.7149ZM134.403 37.2305 134.403 78.1602 185.989 78.1602 185.989 37.2305ZM60.2939 37.2305 60.2939 78.1602 111.638 78.1602 111.638 37.2305ZM697.821 16.8867C696.933 25.5248 696.368 33.5573 696.126 40.9844L696.126 53.5781C696.368 61.4089 696.933 69.0781 697.821 76.5859 688.214 75.5365 680.061 74.8906 673.36 74.6484L545.122 74.6484 545.122 97.4141C545.203 100.724 545.243 104.316 545.243 108.191 545.243 163.007 534.708 204.421 513.638 232.434 506.614 227.105 497.492 223.432 486.27 221.414 511.539 202.846 523.608 162.361 522.477 99.957L522.477 41.9531C522.235 34.1224 521.67 25.8477 520.782 17.1289 531.277 18.1784 540.198 18.8242 547.544 19.0664L672.028 19.0664C680.101 18.7435 688.699 18.017 697.821 16.8867ZM35.9541 16.4024C48.2249 17.9362 57.307 18.6628 63.2002 18.582L183.567 18.582C189.864 18.6628 198.785 17.9362 210.329 16.4024 209.603 22.2149 209.118 27.1797 208.876 31.2969 208.715 33.3151 208.634 35.2526 208.634 37.1094 208.553 38.8047 208.513 40.9037 208.513 43.4063L208.513 206.035C208.836 216.53 206.172 223.311 200.521 226.379 195.112 230.092 183.164 232.434 164.677 233.402 163.708 225.41 160.317 216.812 154.505 207.609 160.156 208.336 164.677 208.78 168.067 208.941 169.763 209.103 171.297 209.184 172.669 209.184 173.88 209.264 175.414 209.305 177.271 209.305 183.648 209.708 186.554 207.246 185.989 201.918L185.989 149.605 134.403 149.605 134.403 189.445C134.403 197.034 135.049 205.551 136.341 214.996L109.579 214.996C110.951 205.228 111.638 196.711 111.638 189.445L111.638 149.605 60.0518 149.605C58.6794 179.637 47.9828 208.982 27.9619 237.641 21.4229 231.505 12.9059 226.702 2.41114 223.23 27.195 203.048 39.0218 170.232 37.8916 124.781L37.8916 42.9219C37.9723 36.2214 37.3265 27.3815 35.9541 16.4024ZM336.267 2.47658C349.829 9.66148 368.276 20.237 391.606 34.2031L380.708 50.793 418.126 50.793C430.478 50.7123 442.224 49.9857 453.364 48.6133 452.073 59.1888 451.386 70.9349 451.306 83.8516L451.306 129.262C451.306 130.715 451.83 137.9 452.88 150.816 452.961 152.027 453.041 152.915 453.122 153.48L427.087 153.48C428.056 147.426 428.621 142.138 428.782 137.617L316.165 137.617C313.743 179.435 297.315 213.664 266.88 240.305 260.825 234.411 252.873 228.72 243.024 223.23 276.769 205.309 293.642 171.16 293.642 120.785L293.642 88.332C293.561 75.1732 292.875 61.9336 291.583 48.6133 306.114 49.905 318.022 50.6315 327.306 50.793L374.169 50.793C354.955 38.28 338.527 28.5521 324.884 21.6094Z" stroke="#ED7D31" stroke-width="2" stroke-linejoin="round" stroke-miterlimit="10" fill="#FFFFFF" fill-rule="evenodd"/></g></g><path d="M1665.66 509.5C1673.58 510.63 1682.17 511.397 1691.46 511.8L1809.04 511.8C1819.13 511.397 1827.73 510.63 1834.83 509.5L1834.83 532.629C1824.18 531.418 1815.58 530.651 1809.04 530.328L1732.87 530.328 1746.31 536.019C1749.3 537.392 1750.63 539.006 1750.31 540.863 1749.74 542.72 1747.73 543.931 1744.25 544.496 1741.11 544.819 1738.56 546.393 1736.63 549.218 1730.33 557.211 1722.46 566.817 1713.01 578.039 1735.21 576.505 1758.22 575.092 1782.04 573.8 1776.47 567.019 1770.33 559.996 1763.63 552.73L1782.04 539.289C1799.8 558.664 1815.58 577.756 1829.38 596.566L1810.01 611.945C1805.49 605.002 1800.85 598.14 1796.08 591.359 1726.01 595.718 1688.59 600.602 1683.83 606.011L1675.11 581.672C1684.47 578.846 1691.82 573.962 1697.15 567.019 1706.68 555.152 1714.55 542.922 1720.76 530.328L1691.46 530.328C1686.13 530.489 1677.53 531.256 1665.66 532.629ZM1252.77 473.05 1252.77 507.32 1304.35 507.32 1304.35 473.05ZM1178.66 473.05 1178.66 507.32 1230 507.32 1230 473.05ZM1680.56 470.629C1689.76 471.597 1698.52 472.243 1706.84 472.566L1790.39 472.566C1799.03 472.243 1807.79 471.597 1816.67 470.629L1816.67 493.394C1805.69 492.183 1796.93 491.457 1790.39 491.214L1706.84 491.214C1701.1 491.457 1692.35 492.183 1680.56 493.394ZM1434.53 445.804 1434.53 495.453 1547.15 495.453 1547.15 445.804ZM1663.48 414.078 1663.48 432.363 1791.97 432.363 1791.97 414.078ZM1252.77 413.593 1252.77 454.523 1304.35 454.523 1304.35 413.593ZM1178.66 413.593 1178.66 454.523 1230 454.523 1230 413.593ZM1816.18 393.25C1815.3 401.888 1814.73 409.92 1814.49 417.347L1814.49 429.941C1814.73 437.772 1815.3 445.441 1816.18 452.949 1806.58 451.899 1798.42 451.254 1791.72 451.011L1663.48 451.011 1663.48 473.777C1663.57 477.087 1663.61 480.679 1663.61 484.554 1663.61 539.369 1653.07 580.784 1632 608.797 1624.98 603.468 1615.85 599.795 1604.63 597.777 1629.9 579.209 1641.97 538.724 1640.84 476.32L1640.84 418.316C1640.6 410.485 1640.03 402.211 1639.15 393.492 1649.64 394.541 1658.56 395.187 1665.91 395.429L1790.39 395.429C1798.46 395.106 1807.06 394.38 1816.18 393.25ZM1154.32 392.765C1166.59 394.299 1175.67 395.026 1181.56 394.945L1301.93 394.945C1308.23 395.026 1317.15 394.299 1328.69 392.765 1327.97 398.578 1327.48 403.543 1327.24 407.66 1327.08 409.678 1327 411.616 1327 413.472 1326.92 415.168 1326.88 417.267 1326.88 419.769L1326.88 582.398C1327.2 592.893 1324.53 599.674 1318.88 602.742 1313.47 606.455 1301.53 608.797 1283.04 609.765 1282.07 601.773 1278.68 593.175 1272.87 583.972 1278.52 584.699 1283.04 585.143 1286.43 585.304 1288.13 585.466 1289.66 585.547 1291.03 585.547 1292.24 585.627 1293.78 585.668 1295.63 585.668 1302.01 586.071 1304.92 583.609 1304.35 578.281L1304.35 525.968 1252.77 525.968 1252.77 565.808C1252.77 573.397 1253.41 581.914 1254.7 591.359L1227.94 591.359C1229.31 581.591 1230 573.074 1230 565.808L1230 525.968 1178.41 525.968C1177.04 556 1166.35 585.345 1146.32 614.004 1139.79 607.868 1131.27 603.065 1120.77 599.593 1145.56 579.411 1157.38 546.595 1156.25 501.144L1156.25 419.285C1156.34 412.584 1155.69 403.744 1154.32 392.765ZM1454.63 378.839C1468.19 386.024 1486.64 396.6 1509.97 410.566L1499.07 427.156 1536.49 427.156C1548.84 427.075 1560.59 426.349 1571.73 424.976 1570.44 435.552 1569.75 447.298 1569.67 460.214L1569.67 505.625C1569.67 507.078 1570.19 514.263 1571.24 527.179 1571.32 528.39 1571.4 529.278 1571.48 529.843L1545.45 529.843C1546.42 523.789 1546.98 518.501 1547.15 513.98L1434.53 513.98C1432.11 555.798 1415.68 590.027 1385.24 616.668 1379.19 610.774 1371.24 605.083 1361.39 599.593 1395.13 581.672 1412 547.523 1412 497.148L1412 464.695C1411.92 451.536 1411.24 438.297 1409.95 424.976 1424.48 426.268 1436.38 426.994 1445.67 427.156L1492.53 427.156C1473.32 414.643 1456.89 404.915 1443.25 397.972Z" stroke="#ED7D31" stroke-width="2" stroke-linejoin="round" stroke-miterlimit="10" fill="#FFFFFF" fill-rule="evenodd"/><text fill="#000000" fill-opacity="0" font-family="Arial,Arial_MSFontService,sans-serif" font-size="237.828" x="1120.77" y="586.939">用户层</text><g clip-path="url(#clip4)" filter="url(#fx1)" transform="translate(4185 559)"><g><path d="M143.467 131.911 143.467 203.114C152.267 196.737 160.864 188.462 169.26 178.29 159.734 165.858 151.137 150.398 143.467 131.911ZM557.092 131.427C565.004 132.557 573.601 133.324 582.885 133.728L700.467 133.728C710.558 133.324 719.156 132.557 726.26 131.427L726.26 154.556C715.604 153.345 707.006 152.578 700.467 152.255L624.299 152.255 637.741 157.946C640.728 159.319 642.06 160.933 641.737 162.79 641.172 164.647 639.153 165.858 635.682 166.423 632.534 166.746 629.991 168.32 628.053 171.146 621.756 179.138 613.885 188.744 604.44 199.966 626.64 198.432 649.648 197.019 673.463 195.728 667.893 188.946 661.758 181.923 655.057 174.657L673.463 161.216C691.224 180.591 707.006 199.683 720.811 218.493L701.436 233.872C696.915 226.929 692.273 220.067 687.51 213.286 617.437 217.646 580.019 222.53 575.256 227.938L566.538 203.599C575.902 200.773 583.248 195.889 588.577 188.946 598.103 177.079 605.974 164.849 612.19 152.255L582.885 152.255C577.557 152.416 568.959 153.183 557.092 154.556ZM160.542 121.739C166.435 136.19 173.216 148.703 180.885 159.278 186.698 148.622 191.42 136.109 195.053 121.739ZM571.987 92.5557C581.19 93.5244 589.949 94.1702 598.264 94.4932L681.819 94.4932C690.457 94.1702 699.216 93.5244 708.096 92.5557L708.096 115.321C697.117 114.11 688.358 113.384 681.819 113.142L598.264 113.142C592.532 113.384 583.773 114.11 571.987 115.321ZM50.9517 91.3447C50.9517 99.8213 50.9113 106.32 50.8306 110.841 50.7498 116.169 50.6288 121.659 50.4673 127.31L81.2251 127.31 81.2251 91.3447ZM51.436 36.9736 51.436 72.6963 81.2251 72.6963 81.2251 36.9736ZM554.913 36.0049 554.913 54.2901 683.393 54.2901 683.393 36.0049ZM26.854 16.1455C36.0571 17.5179 43.9282 18.2445 50.4673 18.3252L80.7407 18.3252C89.3787 18.083 97.6535 17.3565 105.565 16.1455 104.758 21.6351 104.233 27.0036 103.991 32.251 103.668 37.3369 103.506 43.6338 103.506 51.1416L103.506 203.356C103.991 213.609 101.65 219.946 96.4829 222.368 92.0428 225.436 79.4087 227.777 58.5806 229.392 57.0467 220.754 54.5845 212.075 51.1939 203.356 52.4048 203.437 54.1001 203.599 56.2798 203.841 65.6444 204.81 71.2147 205.254 72.9907 205.173 79.1262 205.576 81.8709 202.993 81.2251 197.423L81.2251 145.837 49.4985 145.837C47.884 174.738 41.1027 203.437 29.1548 231.935 21.1626 228.221 12.242 225.234 2.39307 222.974 21.0415 201.5 29.8814 162.669 28.9126 106.481L28.9126 49.3252C28.9126 38.5882 28.2264 27.5283 26.854 16.1455ZM119.127 15.6611C127.362 16.9528 137.614 17.6794 149.885 17.8408L190.815 17.8408C199.453 17.6794 207.889 16.9528 216.124 15.6611 215.074 21.5544 214.428 29.2236 214.186 38.669 214.105 39.557 213.984 41.7367 213.823 45.208 213.419 53.9268 213.096 59.6989 212.854 62.5244 212.289 73.4229 208.575 80.8499 201.713 84.8057 195.174 89.0843 182.702 91.6677 164.295 92.5557 162.196 85.1286 158.887 76.4502 154.366 66.5205 164.053 68.2158 172.005 69.1039 178.221 69.1846 186.617 69.7497 190.976 66.4398 191.299 59.2549 191.784 54.0075 192.187 46.419 192.51 36.4893L143.467 36.4893 143.467 103.212 191.057 103.212C201.713 103.05 212.289 102.203 222.784 100.669 213.984 133.849 204.66 158.915 194.811 175.868 208.051 188.058 224.842 197.988 245.186 205.657 237.92 210.824 231.543 217.605 226.053 226.001 209.988 216.717 195.78 205.94 183.428 193.669 176.566 202.791 166.798 213.73 154.124 226.485 150.41 222.853 146.858 219.946 143.467 217.767 143.629 223.014 144.113 228.463 144.92 234.114L119.127 234.114C120.258 223.216 120.944 210.905 121.186 197.181L121.186 51.8682C121.025 40.7276 120.338 28.6586 119.127 15.6611ZM707.612 15.1768C706.724 23.8148 706.159 31.8473 705.916 39.2744L705.916 51.8682C706.159 59.6989 706.724 67.3682 707.612 74.876 698.005 73.8265 689.851 73.1807 683.151 72.9385L554.913 72.9385 554.913 95.7041C554.993 99.014 555.034 102.606 555.034 106.481 555.034 161.297 544.498 202.711 523.428 230.724 516.405 225.396 507.282 221.722 496.061 219.704 521.329 201.136 533.398 160.651 532.268 98.2471L532.268 40.2432C532.026 32.4125 531.461 24.1377 530.573 15.419 541.068 16.4684 549.988 17.1143 557.334 17.3565L681.819 17.3565C689.892 17.0336 698.489 16.307 707.612 15.1768ZM335.643 1.73537 360.709 11.9072C362.566 12.7145 363.374 13.7438 363.131 14.9951 362.889 16.2464 361.678 17.2757 359.499 18.083 357.803 18.8096 356.068 20.2223 354.291 22.3213 351.304 26.1963 348.56 29.7484 346.057 32.9776L418.713 32.9776C423.234 33.2197 432.76 32.4125 447.291 30.5557 435.747 48.3161 416.736 67.9736 390.256 89.5283 414.798 103.575 448.422 112.092 491.127 115.079 481.844 121.376 474.82 130.216 470.057 141.599 431.791 133.929 398.571 121.215 370.397 103.454 364.907 107.168 358.207 111.043 350.295 115.079L377.541 119.56C379.883 120.044 381.053 121.013 381.053 122.466 381.053 124.08 379.64 126.341 376.815 129.247 375.846 130.135 375.12 131.952 374.635 134.696L373.061 144.384 416.049 144.384C425.898 144.303 436.232 143.536 447.049 142.083 444.708 150.721 442.448 165.05 440.268 185.071 438.653 204.204 434.052 216.596 426.463 222.247 419.763 228.544 404.626 232.661 381.053 234.599 376.936 224.507 372.617 215.91 368.096 208.806 369.146 208.886 371.366 209.007 374.756 209.169 382.668 209.653 387.471 209.896 389.166 209.896 402.971 210.057 410.681 206.747 412.295 199.966 414.556 193.427 416.534 180.914 418.229 162.427L369.428 162.427C362.97 197.463 334.351 222.287 283.573 236.899 280.747 229.23 274.733 221.763 265.53 214.497 308.881 208.604 335.401 191.247 345.088 162.427L320.506 162.427C310.577 162.588 299.597 163.517 287.569 165.212L287.569 142.083C299.436 143.536 310.415 144.303 320.506 144.384L348.842 144.384C349.165 141.397 349.327 137.845 349.327 133.728 349.327 128.561 349.084 122.668 348.6 116.048 324.543 127.915 298.911 138.006 271.706 146.321 266.377 138.571 259.838 131.063 252.088 123.798 289.062 118.47 322.121 107.289 351.264 90.2549 341.415 81.6976 333.14 73.9476 326.44 67.0049L343.151 51.8682C352.919 63.7354 361.92 72.333 370.155 77.6611 381.457 69.1846 391.709 60.3447 400.913 51.1416L334.432 51.1416C324.26 64.2197 311.707 78.1052 296.772 92.7979 289.749 87.5505 281.232 82.9893 271.221 79.1143 301.333 58.4476 322.807 32.6546 335.643 1.73537Z" stroke="#70AD47" stroke-width="2" stroke-linejoin="round" stroke-miterlimit="10" fill="#FFFFFF" fill-rule="evenodd"/></g></g><path d="M4320.83 683.274 4320.83 754.477C4329.63 748.1 4338.23 739.825 4346.62 729.653 4337.1 717.221 4328.5 701.761 4320.83 683.274ZM4734.46 682.79C4742.37 683.92 4750.96 684.687 4760.25 685.09L4877.83 685.09C4887.92 684.687 4896.52 683.92 4903.62 682.79L4903.62 705.919C4892.97 704.708 4884.37 703.941 4877.83 703.618L4801.66 703.618 4815.1 709.309C4818.09 710.682 4819.42 712.296 4819.1 714.153 4818.53 716.01 4816.52 717.221 4813.04 717.786 4809.9 718.109 4807.35 719.683 4805.42 722.508 4799.12 730.501 4791.25 740.107 4781.8 751.329 4804 749.795 4827.01 748.382 4850.83 747.09 4845.26 740.309 4839.12 733.286 4832.42 726.02L4850.83 712.579C4868.59 731.954 4884.37 751.046 4898.17 769.856L4878.8 785.235C4874.28 778.292 4869.64 771.43 4864.87 764.649 4794.8 769.008 4757.38 773.893 4752.62 779.301L4743.9 754.962C4753.26 752.136 4760.61 747.252 4765.94 740.309 4775.47 728.442 4783.34 716.212 4789.55 703.618L4760.25 703.618C4754.92 703.779 4746.32 704.546 4734.46 705.919ZM4337.9 673.102C4343.8 687.553 4350.58 700.066 4358.25 710.641 4364.06 699.985 4368.78 687.472 4372.42 673.102ZM4749.35 643.919C4758.55 644.887 4767.31 645.533 4775.63 645.856L4859.18 645.856C4867.82 645.533 4876.58 644.887 4885.46 643.919L4885.46 666.684C4874.48 665.473 4865.72 664.747 4859.18 664.505L4775.63 664.505C4769.9 664.747 4761.14 665.473 4749.35 666.684ZM4228.31 642.708C4228.31 651.184 4228.27 657.683 4228.19 662.204 4228.11 667.532 4227.99 673.021 4227.83 678.672L4258.59 678.672 4258.59 642.708ZM4228.8 588.337 4228.8 624.059 4258.59 624.059 4258.59 588.337ZM4732.28 587.368 4732.28 605.653 4860.76 605.653 4860.76 587.368ZM4204.22 567.508C4213.42 568.881 4221.29 569.607 4227.83 569.688L4258.1 569.688C4266.74 569.446 4275.02 568.719 4282.93 567.508 4282.12 572.998 4281.6 578.367 4281.35 583.614 4281.03 588.7 4280.87 594.997 4280.87 602.505L4280.87 754.719C4281.35 764.972 4279.01 771.309 4273.85 773.731 4269.41 776.799 4256.77 779.14 4235.94 780.755 4234.41 772.117 4231.95 763.438 4228.56 754.719 4229.77 754.8 4231.46 754.962 4233.64 755.204 4243.01 756.172 4248.58 756.617 4250.35 756.536 4256.49 756.939 4259.23 754.356 4258.59 748.786L4258.59 697.2 4226.86 697.2C4225.25 726.101 4218.47 754.8 4206.52 783.297 4198.53 779.584 4189.6 776.597 4179.76 774.337 4198.4 752.863 4207.24 714.032 4206.28 657.844L4206.28 600.688C4206.28 589.951 4205.59 578.891 4204.22 567.508ZM4296.49 567.024C4304.72 568.316 4314.98 569.042 4327.25 569.204L4368.18 569.204C4376.82 569.042 4385.25 568.316 4393.49 567.024 4392.44 572.917 4391.79 580.587 4391.55 590.032 4391.47 590.92 4391.35 593.1 4391.19 596.571 4390.78 605.29 4390.46 611.062 4390.22 613.887 4389.65 624.786 4385.94 632.213 4379.08 636.169 4372.54 640.447 4360.06 643.031 4341.66 643.919 4339.56 636.492 4336.25 627.813 4331.73 617.883 4341.42 619.579 4349.37 620.467 4355.58 620.547 4363.98 621.113 4368.34 617.803 4368.66 610.618 4369.15 605.37 4369.55 597.782 4369.87 587.852L4320.83 587.852 4320.83 654.575 4368.42 654.575C4379.08 654.413 4389.65 653.566 4400.15 652.032 4391.35 685.212 4382.02 710.278 4372.17 727.231 4385.41 739.421 4402.21 749.351 4422.55 757.02 4415.28 762.187 4408.91 768.968 4403.42 777.364 4387.35 768.08 4373.14 757.303 4360.79 745.032 4353.93 754.154 4344.16 765.093 4331.49 777.848 4327.77 774.215 4324.22 771.309 4320.83 769.13 4320.99 774.377 4321.48 779.826 4322.28 785.477L4296.49 785.477C4297.62 774.579 4298.31 762.268 4298.55 748.544L4298.55 603.231C4298.39 592.09 4297.7 580.021 4296.49 567.024ZM4884.97 566.54C4884.09 575.178 4883.52 583.21 4883.28 590.637L4883.28 603.231C4883.52 611.062 4884.09 618.731 4884.97 626.239 4875.37 625.189 4867.21 624.544 4860.51 624.301L4732.28 624.301 4732.28 647.067C4732.36 650.377 4732.4 653.969 4732.4 657.844 4732.4 712.659 4721.86 754.074 4700.79 782.087 4693.77 776.758 4684.65 773.085 4673.42 771.067 4698.69 752.499 4710.76 712.014 4709.63 649.61L4709.63 591.606C4709.39 583.775 4708.82 575.501 4707.94 566.782 4718.43 567.831 4727.35 568.477 4734.7 568.719L4859.18 568.719C4867.25 568.396 4875.85 567.67 4884.97 566.54ZM4513.01 553.098 4538.07 563.27C4539.93 564.077 4540.74 565.107 4540.49 566.358 4540.25 567.609 4539.04 568.639 4536.86 569.446 4535.17 570.172 4533.43 571.585 4531.65 573.684 4528.67 577.559 4525.92 581.111 4523.42 584.34L4596.08 584.34C4600.6 584.583 4610.12 583.775 4624.65 581.919 4613.11 599.679 4594.1 619.337 4567.62 640.891 4592.16 654.938 4625.78 663.455 4668.49 666.442 4659.21 672.739 4652.18 681.579 4647.42 692.962 4609.15 685.292 4575.93 672.577 4547.76 654.817 4542.27 658.531 4535.57 662.406 4527.66 666.442L4554.9 670.922C4557.25 671.407 4558.42 672.376 4558.42 673.829 4558.42 675.443 4557 677.704 4554.18 680.61 4553.21 681.498 4552.48 683.314 4552 686.059L4550.42 695.747 4593.41 695.747C4603.26 695.666 4613.59 694.899 4624.41 693.446 4622.07 702.084 4619.81 716.413 4617.63 736.434 4616.02 755.567 4611.41 767.959 4603.83 773.61 4597.13 779.907 4581.99 784.024 4558.42 785.962 4554.3 775.87 4549.98 767.273 4545.46 760.169 4546.51 760.249 4548.73 760.37 4552.12 760.532 4560.03 761.016 4564.83 761.258 4566.53 761.258 4580.33 761.42 4588.04 758.11 4589.66 751.329 4591.92 744.79 4593.9 732.277 4595.59 713.79L4546.79 713.79C4540.33 748.826 4511.71 773.65 4460.94 788.262 4458.11 780.593 4452.1 773.126 4442.89 765.86 4486.24 759.967 4512.76 742.61 4522.45 713.79L4497.87 713.79C4487.94 713.951 4476.96 714.88 4464.93 716.575L4464.93 693.446C4476.8 694.899 4487.78 695.666 4497.87 695.747L4526.21 695.747C4526.53 692.76 4526.69 689.208 4526.69 685.09 4526.69 679.924 4526.45 674.031 4525.96 667.411 4501.91 679.278 4476.27 689.369 4449.07 697.684 4443.74 689.934 4437.2 682.426 4429.45 675.161 4466.43 669.833 4499.48 658.652 4528.63 641.618 4518.78 633.06 4510.5 625.311 4503.8 618.368L4520.51 603.231C4530.28 615.098 4539.28 623.696 4547.52 629.024 4558.82 620.547 4569.07 611.708 4578.28 602.505L4511.79 602.505C4501.62 615.583 4489.07 629.468 4474.13 644.161 4467.11 638.913 4458.59 634.352 4448.58 630.477 4478.7 609.811 4500.17 584.018 4513.01 553.098Z" stroke="#70AD47" stroke-width="2" stroke-linejoin="round" stroke-miterlimit="10" fill="#FFFFFF" fill-rule="evenodd"/><text fill="#000000" fill-opacity="0" font-family="Arial,Arial_MSFontService,sans-serif" font-size="235.164" x="4179.76" y="758.867">服务层</text><g filter="url(#fx2)" transform="translate(5587 467)"><g><path d="M287.951 120.654 287.951 146.925 327.714 146.925 327.714 120.654ZM45.1724 115.293 38.3813 127.713C44.8149 129.739 50.4741 131.704 55.3589 133.611 59.3501 128.488 62.8945 122.382 65.9922 115.293ZM406.811 97.1537C412.649 97.9877 418.993 98.5536 425.844 98.8514L512.608 98.8514C520.054 98.5536 526.398 97.9877 531.641 97.1537L531.641 114.221C523.777 113.327 517.433 112.761 512.608 112.523L456.403 112.523 466.322 116.723C468.526 117.735 469.509 118.927 469.27 120.297 468.853 121.667 467.364 122.56 464.803 122.977 462.479 123.216 460.603 124.377 459.173 126.462 454.527 132.36 448.719 139.449 441.749 147.729 458.131 146.597 475.108 145.555 492.682 144.601 488.571 139.598 484.044 134.415 479.1 129.054L492.682 119.135C505.787 133.432 517.433 147.52 527.62 161.4L513.323 172.748C509.987 167.625 506.561 162.562 503.047 157.558 451.34 160.775 423.729 164.379 420.214 168.37L413.781 150.41C420.691 148.325 426.112 144.721 430.043 139.598 437.073 130.841 442.881 121.816 447.468 112.523L425.844 112.523C421.912 112.642 415.568 113.208 406.811 114.221ZM417.802 68.4706C424.593 69.1854 431.056 69.662 437.192 69.9003L498.847 69.9003C505.221 69.662 511.685 69.1854 518.237 68.4706L518.237 85.2694C510.136 84.3759 503.672 83.8397 498.847 83.661L437.192 83.661C432.962 83.8397 426.499 84.3759 417.802 85.2694ZM299.121 56.9437 318.511 59.267C320.357 59.5053 321.37 60.235 321.549 61.4562 321.728 62.6774 321.013 63.973 319.404 65.3431 317.438 66.7728 316.426 69.5131 316.366 73.5639L316.187 75.2616 333.522 75.2616C338.348 75.202 344.215 74.6957 351.125 73.7426L351.125 90.0052C344.751 89.0521 338.884 88.5756 333.522 88.5756L315.83 88.5756 315.205 107.251 325.48 107.251C331.02 107.31 337.603 106.774 345.228 105.642 344.215 113.387 343.739 119.284 343.798 123.335L343.798 149.516C343.798 155.056 344.275 161.698 345.228 169.442L326.374 169.442C327.148 165.689 327.595 162.592 327.714 160.149L288.13 160.149C288.309 163.307 288.696 166.911 289.291 170.961L270.437 170.961C271.391 163.038 271.867 156.367 271.867 150.946L271.867 123.692C271.748 118.51 271.271 112.493 270.437 105.642 279.433 106.655 286.611 107.191 291.972 107.251L298.942 107.251 299.478 88.5756 287.415 88.5756C282.471 88.5756 276.484 89.0521 269.455 90.0052L269.455 73.7426C277.377 74.6957 283.364 75.202 287.415 75.2616L300.014 75.2616 300.014 74.4574C300.193 68.7982 299.895 62.9603 299.121 56.9437ZM66.1709 55.8715C71.7109 59.1478 77.6382 63.2284 83.9526 68.1132 87.0503 64.4198 89.7905 60.8158 92.1733 57.3012 83.6548 56.4076 77.9062 55.931 74.9277 55.8715ZM405.203 26.7416 405.203 40.2343 500.009 40.2343 500.009 26.7416ZM268.204 24.1503 268.204 43.183 325.123 43.183 325.123 24.1503ZM27.2119 11.5512C32.0371 17.6869 36.7432 24.3886 41.3301 31.6561L27.3906 41.0385C23.5186 33.8305 19.2593 26.9799 14.6128 20.4867 14.1958 19.891 13.8682 19.4144 13.6299 19.057ZM517.88 11.3725C517.225 17.7465 516.808 23.6737 516.629 29.1542L516.629 38.4472C516.808 44.2255 517.225 49.8847 517.88 55.4247 510.791 54.6503 504.774 54.1737 499.83 53.995L405.203 53.995 405.203 70.7938C405.262 73.2362 405.292 75.8871 405.292 78.7465 405.292 119.195 397.518 149.754 381.97 170.425 376.788 166.494 370.056 163.783 361.776 162.294 380.421 148.593 389.327 118.718 388.493 72.6703L388.493 29.869C388.314 24.0907 387.897 17.9847 387.242 11.5512 394.986 12.3256 401.569 12.8021 406.99 12.9809L498.847 12.9809C504.804 12.7426 511.148 12.2064 517.88 11.3725ZM81.54 7.88759 93.7817 17.3593C95.7476 18.8485 96.7305 20.1293 96.7305 21.2015 96.7305 21.4398 96.7007 21.6483 96.6411 21.827 96.2241 22.9589 94.4966 23.6737 91.4585 23.9716 90.5649 23.9716 89.0161 25.1928 86.812 27.6351 86.4546 28.1117 85.7993 28.9755 84.8462 30.2264 81.8677 34.0985 78.9487 37.9408 76.0894 41.7533 72.3364 38.4174 68.0474 35.2304 63.2222 32.1923 70.0132 25.4608 75.7617 17.955 80.4678 9.6747 80.9443 8.90028 81.3018 8.30458 81.54 7.88759ZM109.687 1.99013 130.06 7.70888C131.728 8.18544 132.532 9.01942 132.473 10.2108 132.294 11.4022 131.311 12.4447 129.524 13.3383 127.439 14.4701 126.158 16.0189 125.682 17.9847 121.988 30.6732 119.04 39.8173 116.835 45.4169L149.986 45.4169C155.467 45.2382 161.215 44.7914 167.232 44.0765L167.232 60.6073C166.1 60.4882 164.521 60.3392 162.496 60.1605 155.288 59.3861 151.118 59.0287 149.986 59.0883 147.008 88.0394 141.527 109.634 133.545 123.871 145.936 139.3 159.845 150.469 175.274 157.379 168.542 160.656 162.854 165.719 158.207 172.57 145.161 164.17 133.813 152.822 124.163 138.525 113.38 152.703 100.215 164.677 84.6675 174.446 80.9741 168.668 75.9106 164.319 69.4771 161.4 69.9536 161.102 70.6685 160.715 71.6216 160.239 73.1704 159.405 74.2725 158.749 74.9277 158.273 71.1748 156.128 66.0518 153.686 59.5586 150.946 49.0147 159.464 35.3731 166.732 18.6338 172.748 15.2383 167.149 10.5322 161.609 4.51563 156.128 21.0166 155.235 34.0625 151.273 43.6533 144.244 35.1348 140.968 25.7524 137.959 15.5063 135.219 20.689 128.13 24.71 121.488 27.5693 115.293L22.0293 115.293C17.8594 115.472 11.9619 115.948 4.33692 116.723L4.33692 100.46C13.2725 101.413 19.1699 101.919 22.0293 101.979L34.0029 101.979C36.6836 95.6049 38.6792 90.3329 39.9897 86.163L55.895 91.5243C58.2183 92.2391 59.3054 93.222 59.1565 94.473 59.0076 95.724 57.6821 96.8856 55.1802 97.9579 54.2271 98.3153 53.4526 99.0302 52.8569 100.102L51.874 101.979 69.4771 101.979C76.8638 101.919 83.5059 101.532 89.4033 100.817 85.4717 113.804 79.2466 126.552 70.728 139.061L85.7397 145.138C83.2974 148.891 81.4209 152.316 80.1104 155.413 93.752 148.265 104.981 137.81 113.797 124.05 105.636 111.54 99.7686 96.7367 96.1943 79.64 102.39 79.1039 108.108 78.121 113.351 76.6913 114.482 84.912 117.729 95.0389 123.09 107.072 127.558 97.3026 130.924 81.308 133.188 59.0883L111.027 59.0883C106.917 66.1176 102.717 72.4022 98.4282 77.9423 95.8667 76.6913 93.0967 75.4701 90.1182 74.2787 85.9482 78.806 82.6123 82.8568 80.1104 86.431 73.498 79.4613 67.1538 73.4149 61.0776 68.2919L61.0776 71.9555C61.1968 76.3637 61.6138 81.3676 62.3286 86.9672L43.6533 86.9672C44.4277 80.4144 44.8447 75.2318 44.9043 71.4193L44.9043 68.2919C37.6367 77.9423 28.0757 87.2054 16.2212 96.0814 12.5278 91.7328 7.64307 87.7118 1.5669 84.0184 17.2935 75.9764 28.9395 66.5941 36.5049 55.8715L25.8716 55.8715C21.2251 55.9906 15.1489 56.4672 7.64307 57.3012L7.64307 41.0385C15.6851 41.8724 21.7612 42.349 25.8716 42.4681L44.9043 42.4681 44.9043 23.2567C44.7256 19.3251 44.249 12.5043 43.4746 2.79433L60.5415 5.47499C64.9497 6.18983 67.2729 6.99403 67.5112 7.88759 67.5708 8.00673 67.6006 8.18544 67.6006 8.42372 67.6006 9.43642 66.3794 10.9555 63.937 12.9809 61.9712 14.2914 61.0181 17.8358 61.0776 23.6141L61.0776 42.4681 74.9277 42.4681C77.0723 42.4681 83.1187 41.9916 93.0669 41.0385L93.0669 55.8715C101.466 43.3617 107.006 25.4013 109.687 1.99013ZM211.105 1.63271 230.317 4.0453C232.581 4.40273 233.832 5.23671 234.07 6.54726 234.189 7.8578 233.236 9.40663 231.21 11.1937 229.542 12.683 228.708 15.8402 228.708 20.6654L228.708 40.8597 230.853 40.8597C235.797 40.9193 241.903 40.3534 249.171 39.162L249.171 56.0502C242.261 54.9779 236.155 54.4716 230.853 54.5311L228.708 54.5311 228.708 81.4271C233.415 78.5082 239.938 74.2489 248.277 68.6493L245.507 88.933C242.291 90.3031 237.346 92.8051 230.674 96.4388 229.721 96.975 229.066 97.3324 228.708 97.5111L228.708 147.729C237.525 138.555 243.571 127.981 246.848 116.008 250.184 104.391 251.822 87.5033 251.762 65.3431L251.762 30.0477C251.643 23.2567 251.077 16.287 250.064 9.13857 258.702 10.2108 266.774 10.7767 274.28 10.8363L319.851 10.8363C327.178 10.8959 334.922 10.33 343.083 9.13857 341.952 16.5849 341.386 23.1674 341.386 28.8861L341.386 38.0897C341.326 42.9745 341.892 49.6762 343.083 58.1947 335.28 57.1224 328.191 56.5863 321.817 56.5863L268.204 56.5863 268.204 64.4496C268.323 88.4564 266.536 106.983 262.842 120.029 259.387 133.372 252.388 147.342 241.844 161.936 237.733 158.66 233.295 155.979 228.53 153.894 228.232 159.494 226.087 163.307 222.096 165.332 218.462 167.476 210.837 168.966 199.221 169.8 198.983 164.617 196.779 158.213 192.609 150.588 200.949 152.078 206.012 152.822 207.799 152.822 211.135 152.941 212.714 150.916 212.535 146.746L212.535 107.072C210.212 108.502 206.25 111.034 200.651 114.667 197.375 116.752 194.932 118.301 193.324 119.314L181.439 103.766C191.626 100.49 201.991 95.9027 212.535 90.0052L212.535 54.5311 203.6 54.5311C198.298 54.5311 192.192 55.0375 185.282 56.0502L185.282 39.162C192.847 40.2343 199.072 40.8002 203.957 40.8597L212.535 40.8597 212.535 23.2567C212.416 16.8231 211.939 9.61513 211.105 1.63271Z" stroke="#8FAADC" stroke-width="2" stroke-linejoin="round" stroke-miterlimit="10" fill="#FFFFFF" fill-rule="evenodd"/></g></g><path d="M5868.71 581.413 5868.71 607.684 5908.47 607.684 5908.47 581.413ZM5625.93 576.052 5619.14 588.472C5625.57 590.498 5631.23 592.464 5636.12 594.37 5640.11 589.247 5643.65 583.141 5646.75 576.052ZM5987.57 557.913C5993.41 558.747 5999.75 559.313 6006.6 559.611L6093.37 559.611C6100.81 559.313 6107.16 558.747 6112.4 557.913L6112.4 574.98C6104.54 574.086 6098.19 573.52 6093.37 573.282L6037.16 573.282 6047.08 577.482C6049.29 578.494 6050.27 579.686 6050.03 581.056 6049.61 582.426 6048.12 583.32 6045.56 583.737 6043.24 583.975 6041.36 585.136 6039.93 587.221 6035.29 593.119 6029.48 600.208 6022.51 608.488 6038.89 607.356 6055.87 606.314 6073.44 605.361 6069.33 600.357 6064.8 595.174 6059.86 589.813L6073.44 579.894C6086.55 594.191 6098.19 608.279 6108.38 622.159L6094.08 633.508C6090.75 628.384 6087.32 623.321 6083.81 618.317 6032.1 621.534 6004.49 625.138 6000.97 629.129L5994.54 611.169C6001.45 609.084 6006.87 605.48 6010.8 600.357 6017.83 591.6 6023.64 582.575 6028.23 573.282L6006.6 573.282C6002.67 573.401 5996.33 573.967 5987.57 574.98ZM5998.56 529.23C6005.35 529.945 6011.82 530.421 6017.95 530.659L6079.61 530.659C6085.98 530.421 6092.44 529.945 6099 529.23L6099 546.029C6090.9 545.135 6084.43 544.599 6079.61 544.42L6017.95 544.42C6013.72 544.599 6007.26 545.135 5998.56 546.029ZM5879.88 517.703 5899.27 520.026C5901.12 520.264 5902.13 520.994 5902.31 522.215 5902.49 523.436 5901.77 524.732 5900.16 526.102 5898.2 527.532 5897.19 530.272 5897.13 534.323L5896.95 536.021 5914.28 536.021C5919.11 535.961 5924.97 535.455 5931.88 534.502L5931.88 550.764C5925.51 549.811 5919.64 549.335 5914.28 549.335L5896.59 549.335 5895.96 568.01 5906.24 568.01C5911.78 568.07 5918.36 567.533 5925.99 566.402 5924.97 574.146 5924.5 580.043 5924.56 584.094L5924.56 610.275C5924.56 615.815 5925.03 622.457 5925.99 630.201L5907.13 630.201C5907.91 626.448 5908.35 623.351 5908.47 620.908L5868.89 620.908C5869.07 624.066 5869.46 627.67 5870.05 631.72L5851.2 631.72C5852.15 623.798 5852.63 617.126 5852.63 611.705L5852.63 584.451C5852.51 579.269 5852.03 573.252 5851.2 566.402 5860.19 567.414 5867.37 567.95 5872.73 568.01L5879.7 568.01 5880.24 549.335 5868.17 549.335C5863.23 549.335 5857.24 549.811 5850.21 550.764L5850.21 534.502C5858.14 535.455 5864.12 535.961 5868.17 536.021L5880.77 536.021 5880.77 535.216C5880.95 529.557 5880.65 523.719 5879.88 517.703ZM5646.93 516.631C5652.47 519.907 5658.4 523.987 5664.71 528.872 5667.81 525.179 5670.55 521.575 5672.93 518.06 5664.41 517.167 5658.67 516.69 5655.69 516.631ZM5985.96 487.501 5985.96 500.993 6080.77 500.993 6080.77 487.501ZM5848.96 484.909 5848.96 503.942 5905.88 503.942 5905.88 484.909ZM5607.97 472.31C5612.8 478.446 5617.5 485.148 5622.09 492.415L5608.15 501.798C5604.28 494.59 5600.02 487.739 5595.37 481.246 5594.96 480.65 5594.63 480.174 5594.39 479.816ZM6098.64 472.132C6097.98 478.506 6097.57 484.433 6097.39 489.913L6097.39 499.206C6097.57 504.985 6097.98 510.644 6098.64 516.184 6091.55 515.409 6085.53 514.933 6080.59 514.754L5985.96 514.754 5985.96 531.553C5986.02 533.995 5986.05 536.646 5986.05 539.506 5986.05 579.954 5978.28 610.513 5962.73 631.184 5957.55 627.253 5950.82 624.542 5942.54 623.053 5961.18 609.352 5970.09 579.477 5969.25 533.429L5969.25 490.628C5969.07 484.85 5968.66 478.744 5968 472.31 5975.75 473.085 5982.33 473.561 5987.75 473.74L6079.61 473.74C6085.56 473.502 6091.91 472.966 6098.64 472.132ZM5662.3 468.647 5674.54 478.118C5676.51 479.608 5677.49 480.888 5677.49 481.961 5677.49 482.199 5677.46 482.407 5677.4 482.586 5676.98 483.718 5675.26 484.433 5672.22 484.731 5671.32 484.731 5669.78 485.952 5667.57 488.394 5667.21 488.871 5666.56 489.735 5665.61 490.986 5662.63 494.858 5659.71 498.7 5656.85 502.512 5653.1 499.176 5648.81 495.989 5643.98 492.951 5650.77 486.22 5656.52 478.714 5661.23 470.434 5661.7 469.659 5662.06 469.064 5662.3 468.647ZM5690.45 462.749 5710.82 468.468C5712.49 468.945 5713.29 469.779 5713.23 470.97 5713.05 472.161 5712.07 473.204 5710.28 474.097 5708.2 475.229 5706.92 476.778 5706.44 478.744 5702.75 491.432 5699.8 500.576 5697.59 506.176L5730.75 506.176C5736.23 505.997 5741.97 505.55 5747.99 504.836L5747.99 521.366C5746.86 521.247 5745.28 521.098 5743.26 520.92 5736.05 520.145 5731.88 519.788 5730.75 519.847 5727.77 548.799 5722.29 570.393 5714.3 584.63 5726.69 600.059 5740.6 611.228 5756.03 618.138 5749.3 621.415 5743.61 626.478 5738.97 633.329 5725.92 624.929 5714.57 613.581 5704.92 599.284 5694.14 613.462 5680.97 625.436 5665.43 635.205 5661.73 629.427 5656.67 625.078 5650.24 622.159 5650.71 621.862 5651.43 621.474 5652.38 620.998 5653.93 620.164 5655.03 619.508 5655.69 619.032 5651.93 616.887 5646.81 614.445 5640.32 611.705 5629.77 620.223 5616.13 627.491 5599.39 633.508 5596 627.908 5591.29 622.368 5585.27 616.887 5601.78 615.994 5614.82 612.032 5624.41 605.003 5615.89 601.727 5606.51 598.718 5596.27 595.978 5601.45 588.889 5605.47 582.247 5608.33 576.052L5602.79 576.052C5598.62 576.231 5592.72 576.707 5585.1 577.482L5585.1 561.219C5594.03 562.172 5599.93 562.678 5602.79 562.738L5614.76 562.738C5617.44 556.364 5619.44 551.092 5620.75 546.922L5636.65 552.283C5638.98 552.998 5640.06 553.981 5639.92 555.232 5639.77 556.483 5638.44 557.645 5635.94 558.717 5634.99 559.074 5634.21 559.789 5633.62 560.862L5632.63 562.738 5650.24 562.738C5657.62 562.678 5664.27 562.291 5670.16 561.576 5666.23 574.563 5660.01 587.311 5651.49 599.82L5666.5 605.897C5664.06 609.65 5662.18 613.075 5660.87 616.173 5674.51 609.024 5685.74 598.57 5694.56 584.809 5686.4 572.299 5680.53 557.496 5676.95 540.399 5683.15 539.863 5688.87 538.88 5694.11 537.45 5695.24 545.671 5698.49 555.798 5703.85 567.831 5708.32 558.062 5711.68 542.067 5713.95 519.847L5691.79 519.847C5687.68 526.877 5683.48 533.161 5679.19 538.701 5676.63 537.45 5673.86 536.229 5670.88 535.038 5666.71 539.565 5663.37 543.616 5660.87 547.19 5654.26 540.22 5647.91 534.174 5641.84 529.051L5641.84 532.715C5641.96 537.123 5642.37 542.127 5643.09 547.726L5624.41 547.726C5625.19 541.174 5625.6 535.991 5625.66 532.178L5625.66 529.051C5618.4 538.701 5608.83 547.965 5596.98 556.841 5593.29 552.492 5588.4 548.471 5582.33 544.778 5598.05 536.736 5609.7 527.353 5617.26 516.631L5606.63 516.631C5601.98 516.75 5595.91 517.226 5588.4 518.06L5588.4 501.798C5596.44 502.632 5602.52 503.108 5606.63 503.227L5625.66 503.227 5625.66 484.016C5625.48 480.084 5625.01 473.263 5624.23 463.553L5641.3 466.234C5645.71 466.949 5648.03 467.753 5648.27 468.647 5648.33 468.766 5648.36 468.945 5648.36 469.183 5648.36 470.195 5647.14 471.715 5644.7 473.74 5642.73 475.05 5641.78 478.595 5641.84 484.373L5641.84 503.227 5655.69 503.227C5657.83 503.227 5663.88 502.751 5673.83 501.798L5673.83 516.631C5682.23 504.121 5687.77 486.16 5690.45 462.749ZM5791.86 462.392 5811.08 464.804C5813.34 465.162 5814.59 465.996 5814.83 467.306 5814.95 468.617 5814 470.166 5811.97 471.953 5810.3 473.442 5809.47 476.599 5809.47 481.424L5809.47 501.619 5811.61 501.619C5816.56 501.678 5822.66 501.112 5829.93 499.921L5829.93 516.809C5823.02 515.737 5816.91 515.231 5811.61 515.29L5809.47 515.29 5809.47 542.186C5814.17 539.267 5820.7 535.008 5829.04 529.408L5826.27 549.692C5823.05 551.062 5818.11 553.564 5811.43 557.198 5810.48 557.734 5809.83 558.091 5809.47 558.27L5809.47 608.488C5818.28 599.314 5824.33 588.74 5827.61 576.767 5830.94 565.151 5832.58 548.262 5832.52 526.102L5832.52 490.807C5832.4 484.016 5831.84 477.046 5830.82 469.898 5839.46 470.97 5847.53 471.536 5855.04 471.595L5900.61 471.595C5907.94 471.655 5915.68 471.089 5923.84 469.898 5922.71 477.344 5922.15 483.926 5922.15 489.645L5922.15 498.849C5922.09 503.734 5922.65 510.435 5923.84 518.954 5916.04 517.882 5908.95 517.345 5902.58 517.345L5848.96 517.345 5848.96 525.209C5849.08 549.216 5847.29 567.742 5843.6 580.788 5840.15 594.132 5833.15 608.101 5822.6 622.695 5818.49 619.419 5814.05 616.738 5809.29 614.654 5808.99 620.253 5806.85 624.066 5802.86 626.091 5799.22 628.236 5791.6 629.725 5779.98 630.559 5779.74 625.376 5777.54 618.972 5773.37 611.347 5781.71 612.837 5786.77 613.581 5788.56 613.581 5791.89 613.7 5793.47 611.675 5793.29 607.505L5793.29 567.831C5790.97 569.261 5787.01 571.793 5781.41 575.426 5778.13 577.511 5775.69 579.06 5774.08 580.073L5762.2 564.525C5772.39 561.249 5782.75 556.662 5793.29 550.764L5793.29 515.29 5784.36 515.29C5779.06 515.29 5772.95 515.797 5766.04 516.809L5766.04 499.921C5773.61 500.993 5779.83 501.559 5784.72 501.619L5793.29 501.619 5793.29 484.016C5793.18 477.582 5792.7 470.374 5791.86 462.392Z" stroke="#8FAADC" stroke-width="2" stroke-linejoin="round" stroke-miterlimit="10" fill="#FFFFFF" fill-rule="evenodd"/><text fill="#000000" fill-opacity="0" font-family="Arial,Arial_MSFontService,sans-serif" font-size="172.813" x="5582.33" y="613.604">数据层</text><path d="M970 806.501C971.5 782.038 988.527 761.012 1013.34 763 1090.4 751.938 1145.39 781.83 1217.82 763 1290.24 744.17 1348 773.74 1384.43 763 1420.85 752.261 1470.13 768.931 1551.04 763 1631.95 757.069 1697.23 781.973 1770.66 763 1795.03 767.271 1812.15 789.224 1814 806.501 1833.55 880.703 1797.1 944.059 1814 980.499 1815.39 1004.87 1801.24 1025.03 1770.66 1024 1725.96 1041.41 1643.62 1014.65 1604.05 1024 1564.48 1033.35 1476.83 1009.11 1414.72 1024 1352.61 1038.89 1323.14 1006.16 1248.11 1024 1173.08 1041.84 1097 1012.45 1013.34 1024 988.488 1018.9 973.41 1003.39 970 980.499 951.35 923.57 976.779 864.929 970 806.501Z" stroke="#000000" stroke-width="13.75" stroke-linejoin="round" stroke-miterlimit="10" fill="none" fill-rule="evenodd"/><text font-family="DengXian,DengXian_MSFontService,sans-serif" font-weight="400" font-size="83" transform="matrix(1 0 0 1 1103.72 871)">使用</text><text font-family="Calibri,Calibri_MSFontService,sans-serif" font-weight="400" font-size="83" transform="matrix(1 0 0 1 1268.72 871)">vue3</text><text font-family="DengXian,DengXian_MSFontService,sans-serif" font-weight="400" font-size="83" transform="matrix(1 0 0 1 1432.57 871)">编写的</text><text font-family="Calibri,Calibri_MSFontService,sans-serif" font-weight="400" font-size="83" transform="matrix(1 0 0 1 1112.68 970)">WebUI</text><text font-family="DengXian,DengXian_MSFontService,sans-serif" font-weight="400" font-size="83" transform="matrix(1 0 0 1 1341.11 970)">用户界面</text><path d="M2085.34 812.5C2083.15 840.127 2087.71 845.678 2085.34 868.75 2142.74 879.194 2233.14 858.776 2305.08 868.75 2377.02 878.725 2415.7 867.477 2507.92 868.75 2600.14 870.024 2665.64 876.558 2727.66 868.75 2789.68 860.943 2855.28 872.664 2930.5 868.75 2935.15 896.646 2928.79 948.232 2930.5 981.25 2871.81 977.085 2783.22 983.193 2727.66 981.25 2672.1 979.307 2574.03 979.057 2524.82 981.25 2475.61 983.444 2400.68 985.272 2330.43 981.25 2260.18 977.229 2205.26 976.471 2085.34 981.25 2083.73 1007.11 2084.43 1025.61 2085.34 1037.5 2049.69 1003.36 2024.67 976.831 1972.5 925 1998.61 888.547 2043.53 855.734 2085.34 812.5Z" stroke="#000000" stroke-width="6.875" stroke-miterlimit="8" fill="none" fill-rule="evenodd"/><text font-family="DengXian,DengXian_MSFontService,sans-serif" font-weight="400" font-size="50" transform="matrix(1 0 0 1 2156.34 941)">均由</text><text font-family="Calibri,Calibri_MSFontService,sans-serif" font-weight="400" font-size="50" transform="matrix(1 0 0 1 2257.18 941)">Nodejs</text><text font-family="DengXian,DengXian_MSFontService,sans-serif" font-weight="400" font-size="50" transform="matrix(1 0 0 1 2399.26 941)">提供</text><text font-family="Calibri,Calibri_MSFontService,sans-serif" font-weight="400" font-size="50" transform="matrix(1 0 0 1 2500.09 941)">vue3</text><text font-family="DengXian,DengXian_MSFontService,sans-serif" font-weight="400" font-size="50" transform="matrix(1 0 0 1 2600.36 941)">界面托管</text><path d="M2997 855.334C2998.5 830.964 3015.54 810.019 3040.37 812 3097.99 801.316 3171.8 823.247 3217.56 812 3263.32 800.753 3325.48 815.441 3361.94 812 3398.39 808.559 3450.72 818.007 3506.31 812 3561.91 805.993 3631.79 827.43 3696.63 812 3721.02 816.255 3738.15 838.123 3740 855.334 3759.56 929.252 3723.09 992.365 3740 1028.67 3741.39 1052.94 3727.23 1073.03 3696.63 1072 3653.43 1072.11 3586.45 1061.56 3552.25 1072 3518.05 1082.44 3433.06 1053.19 3388.19 1072 3343.32 1090.81 3294.96 1060.96 3243.81 1072 3192.66 1083.04 3108.6 1056.02 3040.37 1072 3015.5 1066.92 3000.41 1051.47 2997 1028.67 2978.34 971.955 3003.78 913.539 2997 855.334Z" stroke="#000000" stroke-width="13.75" stroke-linejoin="round" stroke-miterlimit="10" fill="none" fill-rule="evenodd"/><text font-family="Calibri,Calibri_MSFontService,sans-serif" font-weight="400" font-size="73" transform="matrix(1 0 0 1 3054.16 966)">Nodejs</text><text font-family="DengXian,DengXian_MSFontService,sans-serif" font-weight="400" font-size="73" transform="matrix(1 0 0 1 3262.13 966)">作为</text><text font-family="Calibri,Calibri_MSFontService,sans-serif" font-weight="400" font-size="73" transform="matrix(1 0 0 1 3408.8 966)">web</text><text font-family="DengXian,DengXian_MSFontService,sans-serif" font-weight="400" font-size="73" transform="matrix(1 0 0 1 3535.92 966)">托管</text><path d="M970 1182.5C979.244 1146.39 993.222 1113.33 1030.43 1122 1086.1 1106.46 1141.45 1136.23 1233.78 1122 1326.1 1107.77 1324.42 1138.86 1399.47 1122 1474.52 1105.14 1496.84 1140.84 1565.16 1122 1633.48 1103.16 1701.87 1127.69 1783.57 1122 1817.69 1129.22 1843.21 1151.97 1844 1182.5 1848.06 1224.18 1833.98 1258.08 1844 1296.24 1854.02 1334.4 1837.41 1381.33 1844 1424.5 1851.72 1455.48 1809.79 1479.17 1783.57 1485 1701.6 1494.87 1657.24 1467.16 1587.75 1485 1518.27 1502.84 1457.49 1467.91 1422.06 1485 1386.64 1502.09 1275.26 1465.52 1218.71 1485 1162.16 1504.48 1071.69 1471.38 1030.43 1485 999.014 1483.53 966.968 1458.03 970 1424.5 968.236 1382.58 981.636 1350.63 970 1305.92 958.364 1261.21 984.502 1231.39 970 1182.5Z" stroke="#000000" stroke-width="13.75" stroke-linejoin="round" stroke-miterlimit="10" fill="none" fill-rule="evenodd"/><text font-family="DengXian,DengXian_MSFontService,sans-serif" font-weight="400" font-size="83" transform="matrix(1 0 0 1 1024.78 1251)">使用</text><text font-family="Calibri,Calibri_MSFontService,sans-serif" font-weight="400" font-size="83" transform="matrix(1 0 0 1 1189.78 1251)">Tauri</text><text font-family="DengXian,DengXian_MSFontService,sans-serif" font-weight="400" font-size="37" transform="matrix(1 0 0 1 1364.38 1251)">(</text><text font-family="DengXian,DengXian_MSFontService,sans-serif" font-weight="400" font-size="37" transform="matrix(1 0 0 1 1375.27 1251)">暂定</text><text font-family="DengXian,DengXian_MSFontService,sans-serif" font-weight="400" font-size="37" transform="matrix(1 0 0 1 1448.6 1251)">)</text><text font-family="DengXian,DengXian_MSFontService,sans-serif" font-weight="400" font-size="83" transform="matrix(1 0 0 1 1459.49 1251)">打包</text><text font-family="Calibri,Calibri_MSFontService,sans-serif" font-weight="400" font-size="83" transform="matrix(1 0 0 1 1624.49 1251)">vue3</text><text font-family="DengXian,DengXian_MSFontService,sans-serif" font-weight="400" font-size="83" transform="matrix(1 0 0 1 1035.32 1350)">用户界面的桌面程序</text><text font-family="Calibri,Calibri_MSFontService,sans-serif" font-weight="400" font-size="50" transform="matrix(1 0 0 1 1205.18 1419)">(</text><text font-family="DengXian,DengXian_MSFontService,sans-serif" font-weight="400" font-size="50" transform="matrix(1 0 0 1 1220.65 1419)">轻量化的</text><text font-family="Calibri,Calibri_MSFontService,sans-serif" font-weight="400" font-size="50" transform="matrix(1 0 0 1 1422.31 1419)">electron)</text><path d="M927 1692.5C937.253 1641.74 961.621 1596.74 1013.48 1606 1101.61 1603.98 1149.17 1618.54 1214.37 1606 1279.57 1593.46 1342.34 1621.16 1378.06 1606 1413.78 1590.84 1466.74 1608.31 1541.75 1606 1616.76 1603.69 1678.57 1620.32 1757.52 1606 1806.52 1618.04 1840.61 1657.07 1844 1692.5 1845.83 1747.74 1833.99 1812.38 1844 1855.12 1854.01 1897.86 1827.98 1949.27 1844 2038.5 1849.23 2084.62 1799.29 2120.12 1757.52 2125 1707.09 2147.92 1632.75 2120.95 1564.07 2125 1495.39 2129.05 1453.74 2113.73 1400.38 2125 1347.02 2136.27 1266.95 2107.68 1199.49 2125 1132.02 2142.32 1082.03 2115.56 1013.48 2125 975.135 2117.94 917.34 2086.63 927 2038.5 919.192 1955.25 929.316 1941.36 927 1868.96 924.684 1796.56 945.298 1753.73 927 1692.5Z" stroke="#000000" stroke-width="13.75" stroke-linejoin="round" stroke-miterlimit="10" fill="none" fill-rule="evenodd"/><text font-family="DengXian,DengXian_MSFontService,sans-serif" font-weight="400" font-size="73" transform="matrix(1 0 0 1 1018.7 1747)">使用</text><text font-family="Calibri,Calibri_MSFontService,sans-serif" font-weight="400" font-size="73" transform="matrix(1 0 0 1 1165.37 1747)">flutter</text><text font-family="DengXian,DengXian_MSFontService,sans-serif" font-weight="400" font-size="37" transform="matrix(1 0 0 1 1362.94 1747)">(</text><text font-family="DengXian,DengXian_MSFontService,sans-serif" font-weight="400" font-size="37" transform="matrix(1 0 0 1 1373.82 1747)">暂定</text><text font-family="DengXian,DengXian_MSFontService,sans-serif" font-weight="400" font-size="37" transform="matrix(1 0 0 1 1447.15 1747)">)</text><text font-family="DengXian,DengXian_MSFontService,sans-serif" font-weight="400" font-size="73" transform="matrix(1 0 0 1 1458.04 1747)">开发的移</text><text font-family="DengXian,DengXian_MSFontService,sans-serif" font-weight="400" font-size="73" transform="matrix(1 0 0 1 1047.6 1835)">动端</text><text font-family="Calibri,Calibri_MSFontService,sans-serif" font-weight="400" font-size="73" transform="matrix(1 0 0 1 1194.27 1835)">App(</text><text font-family="Calibri,Calibri_MSFontService,sans-serif" font-weight="400" font-size="73" transform="matrix(1 0 0 1 1335.78 1835)">android&amp;ios</text><text font-family="Calibri,Calibri_MSFontService,sans-serif" font-weight="400" font-size="73" transform="matrix(1 0 0 1 1700.11 1835)">)</text><text font-family="Calibri,Calibri_MSFontService,sans-serif" font-weight="400" font-size="55" transform="matrix(1 0 0 1 991.732 1906)">(</text><text font-family="DengXian,DengXian_MSFontService,sans-serif" font-weight="400" font-size="55" transform="matrix(1 0 0 1 1008.35 1906)">仅添加界面框架以适配移动端，</text><text font-family="DengXian,DengXian_MSFontService,sans-serif" font-weight="400" font-size="55" transform="matrix(1 0 0 1 1038.07 1972)">界面内依然为</text><text font-family="Calibri,Calibri_MSFontService,sans-serif" font-weight="400" font-size="55" transform="matrix(1 0 0 1 1368.07 1972)">webview</text><text font-family="DengXian,DengXian_MSFontService,sans-serif" font-weight="400" font-size="55" transform="matrix(1 0 0 1 1566.99 1972)">打开为</text><text font-family="DengXian,DengXian_MSFontService,sans-serif" font-weight="400" font-size="55" transform="matrix(1 0 0 1 1019.8 2038)">移动端适配过的</text><text font-family="Calibri,Calibri_MSFontService,sans-serif" font-weight="400" font-size="55" transform="matrix(1 0 0 1 1404.8 2038)">vue3</text><text font-family="DengXian,DengXian_MSFontService,sans-serif" font-weight="400" font-size="55" transform="matrix(1 0 0 1 1513.66 2038)">用户界面</text><text font-family="Calibri,Calibri_MSFontService,sans-serif" font-weight="400" font-size="55" transform="matrix(1 0 0 1 1733.66 2038)">)</text><path d="M3032 1298.17C3045.23 1235.68 3073.06 1177.33 3138.21 1192 3221.37 1182.43 3227.37 1211.89 3313.31 1192 3399.26 1172.11 3404.91 1197.41 3463.64 1192 3522.37 1186.59 3574.02 1194.17 3633.79 1192 3690.14 1192.14 3740.68 1250.88 3740 1298.17 3741.74 1380.23 3729.68 1452.24 3740 1502.01 3750.32 1551.77 3728.5 1648.1 3740 1722.83 3745.25 1782.77 3697.15 1829.72 3633.79 1829 3600.37 1846.1 3534.72 1817.26 3483.46 1829 3432.21 1840.74 3353.36 1809.87 3318.27 1829 3283.18 1848.13 3182.06 1828.82 3138.21 1829 3068.58 1839.23 3030.5 1789.61 3032 1722.83 3025.81 1642.24 3042.07 1580.63 3032 1514.75 3021.93 1448.86 3057.39 1399.89 3032 1298.17Z" stroke="#000000" stroke-width="13.75" stroke-linejoin="round" stroke-miterlimit="10" fill="none" fill-rule="evenodd"/><text font-family="Calibri,Calibri_MSFontService,sans-serif" font-weight="400" font-size="83" transform="matrix(1 0 0 1 3102.81 1340)">Cpp</text><text font-family="DengXian,DengXian_MSFontService,sans-serif" font-weight="400" font-size="83" transform="matrix(1 0 0 1 3234.01 1340)">搭配</text><text font-family="Calibri,Calibri_MSFontService,sans-serif" font-weight="400" font-size="83" transform="matrix(1 0 0 1 3399.01 1340)">crow</text><text font-family="DengXian,DengXian_MSFontService,sans-serif" font-weight="400" font-size="37" transform="matrix(1 0 0 1 3573.82 1340)">(</text><text font-family="DengXian,DengXian_MSFontService,sans-serif" font-weight="400" font-size="37" transform="matrix(1 0 0 1 3584.71 1340)">暂定</text><text font-family="DengXian,DengXian_MSFontService,sans-serif" font-weight="400" font-size="37" transform="matrix(1 0 0 1 3658.04 1340)">)</text><text font-family="DengXian,DengXian_MSFontService,sans-serif" font-weight="400" font-size="83" transform="matrix(1 0 0 1 3131.6 1439)">作为</text><text font-family="Calibri,Calibri_MSFontService,sans-serif" font-weight="400" font-size="83" transform="matrix(1 0 0 1 3296.6 1439)">http </text><text font-family="Calibri,Calibri_MSFontService,sans-serif" font-weight="400" font-size="83" transform="matrix(1 0 0 1 3455.66 1439)">api</text><text font-family="DengXian,DengXian_MSFontService,sans-serif" font-weight="400" font-size="83" transform="matrix(1 0 0 1 3557.64 1439)">实</text><text font-family="DengXian,DengXian_MSFontService,sans-serif" font-weight="400" font-size="83" transform="matrix(1 0 0 1 3138.38 1538)">现，与数据和</text><text font-family="Calibri,Calibri_MSFontService,sans-serif" font-weight="400" font-size="83" transform="matrix(1 0 0 1 3101.42 1637)">python</text><text font-family="DengXian,DengXian_MSFontService,sans-serif" font-weight="400" font-size="83" transform="matrix(1 0 0 1 3340.32 1637)">脚本进行</text><text font-family="DengXian,DengXian_MSFontService,sans-serif" font-weight="400" font-size="83" transform="matrix(1 0 0 1 3303.38 1736)">交互</text><path d="M879 863.094C901.674 761.991 951.77 683.429 1050 692 1139.55 669.923 1191.81 714.075 1234.68 692 1277.55 669.925 1354.46 692.913 1385.16 692 1415.86 691.087 1503.93 703.34 1535.64 692 1567.35 680.659 1671.82 692.612 1734 692 1830.64 713.362 1898.91 790.766 1905 863.094 1915.99 930.178 1901.52 975.954 1905 1034.45 1908.48 1092.94 1889.7 1194.67 1905 1243.42 1920.3 1292.17 1886.64 1376.96 1905 1439.85 1923.36 1502.73 1882.47 1576.03 1905 1648.82 1927.53 1721.6 1899.85 1804.35 1905 1857.78 1910.15 1911.22 1882.4 2044.97 1905 2116.91 1895.67 2220.11 1826.8 2296.92 1734 2288 1687.29 2293.59 1617.46 2271.99 1569.84 2288 1522.21 2304.01 1485.25 2270.24 1412.52 2288 1339.79 2305.76 1275.35 2275.16 1227.84 2288 1180.34 2300.84 1115.36 2270.79 1050 2288 960.136 2275.3 872.047 2218.63 879 2116.91 869.723 2042.22 900.568 1991.24 879 1907.94 857.432 1824.63 895.06 1790.39 879 1724.04 862.94 1657.7 897.844 1613.43 879 1515.08 860.155 1416.73 887.813 1395.29 879 1331.18 870.187 1267.08 899.617 1175.69 879 1109.68 858.383 1043.66 901.578 919.813 879 863.094Z" stroke="#000000" stroke-width="13.75" stroke-linejoin="round" stroke-miterlimit="10" fill="none" fill-rule="evenodd"/><path d="M2831 892.163C2835.78 790.716 2908.81 703.532 3012.17 711 3076.37 688.594 3117.83 729.332 3207.83 711 3297.82 692.668 3301.17 721.509 3367.25 711 3433.34 700.491 3474.23 712.413 3526.68 711 3579.13 709.587 3690.75 711.104 3736.83 711 3837.75 719.424 3910.29 820.161 3918 892.163 3925.54 964.339 3903.13 996.432 3918 1039.67 3932.87 1082.9 3904.36 1143.09 3918 1213.2 3931.64 1283.31 3913.7 1300.4 3918 1378.06 3922.3 1455.72 3914.58 1494.57 3918 1551.6 3921.42 1608.62 3898.38 1710.83 3918 1759.84 3899.87 1854.86 3827.37 1952.65 3736.83 1941 3660.63 1948.63 3645.28 1930.99 3577.4 1941 3509.53 1951.01 3458.48 1932.49 3396.24 1941 3334 1949.51 3265.73 1938.04 3229.57 1941 3193.41 1943.96 3059.8 1935.82 3012.17 1941 2920.11 1969.74 2852.55 1880.37 2831 1759.84 2824.7 1727.91 2848.33 1655.27 2831 1612.33 2813.67 1569.39 2833.99 1483.36 2831 1430.12 2828.01 1376.89 2845.72 1331.54 2831 1273.94 2816.28 1216.34 2851.02 1164.38 2831 1100.4 2810.99 1036.43 2832.1 939.808 2831 892.163Z" stroke="#000000" stroke-width="13.75" stroke-linejoin="round" stroke-miterlimit="10" fill="none" fill-rule="evenodd"/><path d="M2918 2435.83C2920.28 2396.05 2946.76 2358.42 2988.72 2365 3043.47 2360.1 3116.57 2374.6 3190.67 2365 3264.78 2355.4 3317.99 2370.14 3364.04 2365 3410.1 2359.86 3491 2380.44 3560.28 2365 3587.72 2365.72 3631.32 2402.09 3631 2435.83 3631.55 2483.68 3628.85 2541.89 3631 2571.83 3633.15 2601.78 3624.05 2653.42 3631 2719.17 3635.14 2759.32 3600.32 2790.15 3560.28 2790 3494.41 2807.81 3452.47 2779.31 3386.91 2790 3321.34 2800.69 3247.46 2774.68 3196.39 2790 3145.32 2805.32 3049.58 2788.05 2988.72 2790 2945.04 2794.32 2916.34 2767.32 2918 2719.17 2911.44 2673.56 2930.58 2648.54 2918 2580.33 2905.42 2512.12 2928.55 2491.85 2918 2435.83Z" stroke="#000000" stroke-width="13.75" stroke-linejoin="round" stroke-miterlimit="10" fill="none" fill-rule="evenodd"/><text font-family="DengXian,DengXian_MSFontService,sans-serif" font-weight="400" font-size="64" transform="matrix(1 0 0 1 2986.01 2522)">简易守护程序，实现</text><text font-family="DengXian,DengXian_MSFontService,sans-serif" font-weight="400" font-size="64" transform="matrix(1 0 0 1 2986.01 2599)">守护进程与日志记录</text><text font-family="DengXian,DengXian_MSFontService,sans-serif" font-weight="400" font-size="64" transform="matrix(1 0 0 1 3050.18 2676)">（技术栈待定）</text><path d="M2120.5 2580.5C2138.19 2533.71 2166.62 2487.05 2186.09 2455.5 2186.42 2485.82 2186.29 2509.09 2186.09 2531.45 2245.05 2524.28 2311.35 2535.23 2383.75 2531.45 2456.14 2527.66 2492.98 2541.57 2600.33 2531.45 2707.68 2521.33 2720.02 2532.24 2816.91 2531.45 2816.6 2495.39 2815.93 2479.28 2816.91 2455.5 2841.98 2490.73 2864.26 2546.38 2882.5 2580.5 2870.48 2615.92 2843.02 2659.86 2816.91 2705.5 2817.61 2683.2 2820.69 2662.54 2816.91 2629.55 2711.07 2621.07 2668.61 2620.96 2594.02 2629.55 2519.43 2638.15 2440.35 2640.35 2371.13 2629.55 2301.91 2618.76 2250.87 2625.02 2186.09 2629.55 2185.32 2661.76 2189.2 2668.68 2186.09 2705.5 2163.71 2657.45 2141.13 2609.59 2120.5 2580.5Z" stroke="#000000" stroke-width="6.875" stroke-linejoin="round" stroke-miterlimit="10" fill="none" fill-rule="evenodd"/><text font-family="Calibri,Calibri_MSFontService,sans-serif" font-weight="400" font-size="64" transform="matrix(1 0 0 1 2254.88 2601)">Electron</text><text font-family="DengXian,DengXian_MSFontService,sans-serif" font-weight="400" font-size="64" transform="matrix(1 0 0 1 2470.99 2601)">的</text><text font-family="Calibri,Calibri_MSFontService,sans-serif" font-weight="400" font-size="64" transform="matrix(1 0 0 1 2535.15 2601)">IPC</text><text font-family="DengXian,DengXian_MSFontService,sans-serif" font-weight="400" font-size="64" transform="matrix(1 0 0 1 2618.8 2601)">通信</text><path d="M3318.5 1978.5C3346.5 1989.48 3405.94 2002.27 3432.71 2014.58 3459.48 2026.88 3500.71 2040.93 3561.5 2055.26 3534.01 2049.48 3478.16 2055.52 3440 2055.26 3432.4 2109.37 3431.6 2160.49 3440 2252.74 3482.48 2253.52 3502.53 2248.78 3561.5 2252.74 3521.65 2259.61 3490.94 2277.43 3440 2291.12 3389.06 2304.81 3347.67 2321.73 3318.5 2329.5 3268.84 2309.1 3238.48 2298.32 3197 2291.12 3155.52 2283.91 3107.31 2256.27 3075.5 2252.74 3116.91 2252.96 3159.7 2246.86 3197 2252.74 3190.78 2174.4 3195.42 2116.06 3197 2055.26 3143.99 2050.72 3122.15 2058.77 3075.5 2055.26 3119.16 2041.99 3169.53 2023.51 3199.43 2016.11 3229.33 2008.72 3257.54 1991.55 3318.5 1978.5Z" stroke="#000000" stroke-width="6.875" stroke-linejoin="round" stroke-miterlimit="10" fill="none" fill-rule="evenodd"/><text font-family="DengXian,DengXian_MSFontService,sans-serif" font-weight="400" font-size="48" transform="matrix(1 0 0 1 3221.4 2111)">进程守护</text><text font-family="DengXian,DengXian_MSFontService,sans-serif" font-weight="400" font-size="48" transform="matrix(1 0 0 1 3293.58 2169)">与</text><text font-family="DengXian,DengXian_MSFontService,sans-serif" font-weight="400" font-size="48" transform="matrix(1 0 0 1 3221.4 2226)">日志记录</text><path d="M1119 2459.33C1128.24 2423.32 1142.22 2390.35 1179.42 2399 1253.16 2376.67 1311.33 2400.79 1407.34 2399 1503.36 2397.21 1546.5 2405.23 1593.06 2399 1639.62 2392.77 1705.46 2407.44 1778.77 2399 1852.09 2390.56 1905.79 2400.72 2023.58 2399 2057.69 2406.2 2083.21 2428.88 2084 2459.33 2088.06 2500.9 2073.98 2534.71 2084 2572.76 2094.02 2610.81 2077.41 2657.62 2084 2700.67 2091.72 2731.56 2049.79 2755.18 2023.58 2761 1916.23 2776.83 1851.19 2756.5 1804.1 2761 1757.01 2765.5 1666.43 2748.78 1618.38 2761 1570.34 2773.22 1441.55 2759.65 1390.46 2761 1339.37 2762.35 1284.66 2755.81 1179.42 2761 1148.01 2759.53 1115.97 2734.1 1119 2700.67 1117.24 2658.86 1130.63 2627 1119 2582.41 1107.37 2537.83 1133.5 2508.09 1119 2459.33Z" stroke="#000000" stroke-width="13.75" stroke-linejoin="round" stroke-miterlimit="10" fill="none" fill-rule="evenodd"/><text font-family="DengXian,DengXian_MSFontService,sans-serif" font-weight="400" font-size="83" transform="matrix(1 0 0 1 1244.91 2558)">使用</text><text font-family="Calibri,Calibri_MSFontService,sans-serif" font-weight="400" font-size="83" transform="matrix(1 0 0 1 1409.91 2558)">electron</text><text font-family="DengXian,DengXian_MSFontService,sans-serif" font-weight="400" font-size="37" transform="matrix(1 0 0 1 1698.48 2558)">(</text><text font-family="DengXian,DengXian_MSFontService,sans-serif" font-weight="400" font-size="37" transform="matrix(1 0 0 1 1709.36 2558)">暂定</text><text font-family="DengXian,DengXian_MSFontService,sans-serif" font-weight="400" font-size="37" transform="matrix(1 0 0 1 1782.69 2558)">)</text><text font-family="DengXian,DengXian_MSFontService,sans-serif" font-weight="400" font-size="83" transform="matrix(1 0 0 1 1793.58 2558)">打包</text><text font-family="Calibri,Calibri_MSFontService,sans-serif" font-weight="400" font-size="83" transform="matrix(1 0 0 1 1199.86 2657)">vue3</text><text font-family="DengXian,DengXian_MSFontService,sans-serif" font-weight="400" font-size="83" transform="matrix(1 0 0 1 1363.71 2657)">编写的守护程序</text><text font-family="Calibri,Calibri_MSFontService,sans-serif" font-weight="400" font-size="83" transform="matrix(1 0 0 1 1941.21 2657)">ui</text><path d="M1992.5 1381C2017.16 1350.19 2036.51 1329.94 2073.96 1299.5 2073.2 1317.42 2075.13 1330.86 2073.96 1340.25 2148.85 1341.89 2225.08 1333.13 2281.9 1340.25 2338.72 1347.37 2438.49 1329.26 2516.96 1340.25 2595.43 1351.24 2658.92 1337.37 2752.02 1340.25 2845.12 1343.13 2899.05 1349.78 2978.04 1340.25 2977.27 1325.07 2977.27 1312.58 2978.04 1299.5 3016.96 1341.55 3038.82 1353.2 3059.5 1381 3026.4 1414.05 3015.66 1420.08 2978.04 1462.5 2977.59 1449.3 2979.7 1440.34 2978.04 1421.75 2891.85 1414.71 2838.81 1425.41 2770.1 1421.75 2701.4 1418.09 2587.47 1418.02 2535.04 1421.75 2482.61 1425.48 2384.73 1431.52 2327.1 1421.75 2269.48 1411.98 2150 1409.71 2073.96 1421.75 2074.81 1436.59 2075.12 1445 2073.96 1462.5 2052.76 1444.85 2025.03 1413.59 1992.5 1381Z" stroke="#000000" stroke-width="6.875" stroke-linejoin="round" stroke-miterlimit="10" fill="none" fill-rule="evenodd"/><text font-family="DengXian,DengXian_MSFontService,sans-serif" font-weight="400" font-size="48" transform="matrix(1 0 0 1 2184.6 1397)">均通过</text><text font-family="Calibri,Calibri_MSFontService,sans-serif" font-weight="400" font-size="48" transform="matrix(1 0 0 1 2328.97 1397)">http </text><text font-family="Calibri,Calibri_MSFontService,sans-serif" font-weight="400" font-size="48" transform="matrix(1 0 0 1 2422.36 1397)">api</text><text font-family="DengXian,DengXian_MSFontService,sans-serif" font-weight="400" font-size="48" transform="matrix(1 0 0 1 2481.37 1397)">请求进行数据交互</text><path d="M3672.78 1872.8C3700.73 1866.8 3740.6 1854.86 3806.46 1849.19 3798.52 1859.72 3790.35 1871.16 3778.94 1888.52 3813.43 1913.03 3875.34 1951.57 3915.05 1983.76 3954.75 2015.95 4017.34 2056.86 4064.18 2088.13 4111.01 2119.4 4177.49 2158.31 4213.31 2192.49 4219.77 2182.33 4233.49 2164.58 4240.83 2153.17 4256.1 2205.37 4262.36 2241.82 4264.44 2286.85 4238.3 2296.61 4184.26 2305.41 4130.75 2310.46 4139.87 2295.78 4149.78 2287.09 4158.27 2271.14 4106.08 2245.4 4071.34 2199.72 4004.8 2163.73 3938.25 2127.75 3902.58 2099.53 3851.32 2056.33 3800.06 2013.13 3770.86 1994.82 3723.91 1967.16 3709.17 1984.69 3703.96 1996.98 3696.39 2006.49 3688.8 1966.99 3679.72 1910.72 3672.78 1872.8Z" stroke="#000000" stroke-width="6.875" stroke-linejoin="round" stroke-miterlimit="10" fill="none" fill-rule="evenodd"/><text font-family="Calibri,Calibri_MSFontService,sans-serif" font-weight="400" font-size="48" transform="matrix(0.819301 0.573363 -0.573363 0.819301 3780.28 1968)">Python C </text><text font-family="Calibri,Calibri_MSFontService,sans-serif" font-weight="400" font-size="48" transform="matrix(0.819301 0.573363 -0.573363 0.819301 3932.37 2074)">api</text><text font-family="DengXian,DengXian_MSFontService,sans-serif" font-weight="400" font-size="48" transform="matrix(0.819301 0.573363 -0.573363 0.819301 3980.71 2108)">（暂定）</text><path d="M5542 1396.67C5544.28 1356.97 5570.76 1319.43 5612.72 1326 5667.47 1321.11 5740.57 1335.58 5814.67 1326 5888.78 1316.42 5941.99 1331.13 5988.04 1326 6034.1 1320.87 6115 1341.4 6184.28 1326 6211.72 1326.72 6255.32 1363.01 6255 1396.67 6255.55 1444.4 6252.85 1502.47 6255 1532.35 6257.15 1562.22 6248.05 1613.74 6255 1679.33 6259.14 1719.39 6224.32 1750.15 6184.28 1750 6118.41 1767.76 6076.47 1739.34 6010.91 1750 5945.34 1760.66 5871.46 1734.72 5820.39 1750 5769.32 1765.28 5673.58 1748.06 5612.72 1750 5569.04 1754.31 5540.34 1727.37 5542 1679.33 5535.44 1633.83 5554.58 1608.88 5542 1540.83 5529.42 1472.78 5552.55 1452.55 5542 1396.67Z" stroke="#000000" stroke-width="13.75" stroke-linejoin="round" stroke-miterlimit="10" fill="none" fill-rule="evenodd"/><text font-family="DengXian,DengXian_MSFontService,sans-serif" font-weight="400" font-size="64" transform="matrix(1 0 0 1 5770.36 1560)">相关数据</text><path d="M3789.5 1522C3814.16 1491.19 3833.49 1470.94 3870.94 1440.5 3870.18 1458.42 3872.11 1471.86 3870.94 1481.25 3921.51 1474.29 4011.93 1475.83 4060.28 1481.25 4108.62 1486.67 4190.63 1472 4295.85 1481.25 4401.06 1490.5 4433.44 1487.73 4531.42 1481.25 4629.4 1474.77 4674.12 1491.85 4766.99 1481.25 4859.86 1470.65 4896.7 1488.96 4971.74 1481.25 5046.78 1473.54 5150.38 1470.01 5207.31 1481.25 5264.25 1492.49 5325.74 1487.28 5412.06 1481.25 5411.86 1470.51 5412.48 1457.33 5412.06 1440.5 5451.99 1472.47 5477.35 1499.7 5493.5 1522 5460.14 1558.59 5434.18 1576.58 5412.06 1603.5 5412.02 1583.67 5411.49 1582.17 5412.06 1562.75 5302.11 1573.48 5241.29 1570.52 5161.08 1562.75 5080.87 1554.98 5046.29 1565.59 4987.15 1562.75 4928.02 1559.91 4865.12 1563.82 4813.23 1562.75 4761.33 1561.68 4648.34 1562.17 4593.06 1562.75 4537.78 1563.33 4431.76 1567.69 4372.9 1562.75 4314.04 1557.81 4223.01 1557.98 4152.74 1562.75 4082.47 1567.52 3945.68 1567.21 3870.94 1562.75 3870.45 1573.31 3871.37 1590.29 3870.94 1603.5 3835.27 1575.7 3815.39 1554.63 3789.5 1522Z" stroke="#000000" stroke-width="6.875" stroke-linejoin="round" stroke-miterlimit="10" fill="none" fill-rule="evenodd"/><text font-family="Calibri,Calibri_MSFontService,sans-serif" font-weight="400" font-size="48" transform="matrix(1 0 0 1 4305.35 1538)">Cpp</text><text font-family="DengXian,DengXian_MSFontService,sans-serif" font-weight="400" font-size="48" transform="matrix(1 0 0 1 4381.55 1538)">进行</text><text font-family="Calibri,Calibri_MSFontService,sans-serif" font-weight="400" font-size="48" transform="matrix(1 0 0 1 4477.8 1538)">io</text><text font-family="DengXian,DengXian_MSFontService,sans-serif" font-weight="400" font-size="48" transform="matrix(1 0 0 1 4513.89 1538)">操作（或使用</text><text font-family="Calibri,Calibri_MSFontService,sans-serif" font-weight="400" font-size="48" transform="matrix(1 0 0 1 4802.64 1538)">SQLite</text><text font-family="DengXian,DengXian_MSFontService,sans-serif" font-weight="400" font-size="48" transform="matrix(1 0 0 1 4928.68 1538)">）</text><path d="M3774.5 1302C3801.22 1277.43 3821.7 1257.16 3855.99 1220.5 3855.23 1238.42 3857.16 1251.86 3855.99 1261.25 3932.38 1263.14 3970.23 1258.88 4034.91 1261.25 4099.59 1263.62 4166.6 1253.59 4230.96 1261.25 4295.32 1268.91 4339.38 1266.53 4427.01 1261.25 4427.44 1251.36 4427.47 1228.96 4427.01 1220.5 4456.76 1258.07 4469.08 1262.32 4508.5 1302 4479.26 1338.36 4466.05 1348.62 4427.01 1383.5 4428.44 1369.11 4427.11 1353.5 4427.01 1342.75 4358.77 1351.67 4322.58 1348.44 4225.25 1342.75 4127.92 1337.06 4092.62 1344.35 4023.49 1342.75 3954.36 1341.16 3902.66 1346.52 3855.99 1342.75 3854.38 1357.63 3856.77 1365.04 3855.99 1383.5 3831.65 1357.7 3811.33 1330.73 3774.5 1302Z" stroke="#000000" stroke-width="6.875" stroke-linejoin="round" stroke-miterlimit="10" fill="none" fill-rule="evenodd"/><text font-family="DengXian,DengXian_MSFontService,sans-serif" font-weight="400" font-size="48" transform="matrix(1 0 0 1 3918.97 1318)">与大模型</text><text font-family="Calibri,Calibri_MSFontService,sans-serif" font-weight="400" font-size="48" transform="matrix(1 0 0 1 4111.47 1318)">api</text><text font-family="DengXian,DengXian_MSFontService,sans-serif" font-weight="400" font-size="48" transform="matrix(1 0 0 1 4170.48 1318)">进行交互</text><path d="M4243 2409.67C4245.28 2369.97 4271.76 2332.43 4313.72 2339 4368.47 2334.11 4441.57 2348.58 4515.67 2339 4589.78 2329.42 4642.99 2344.13 4689.04 2339 4735.1 2333.87 4816 2354.4 4885.28 2339 4912.72 2339.72 4956.32 2376.01 4956 2409.67 4956.55 2457.4 4953.85 2515.47 4956 2545.35 4958.15 2575.22 4949.05 2626.74 4956 2692.33 4960.14 2732.39 4925.32 2763.15 4885.28 2763 4819.41 2780.76 4777.47 2752.34 4711.91 2763 4646.34 2773.66 4572.46 2747.72 4521.39 2763 4470.32 2778.28 4374.58 2761.06 4313.72 2763 4270.04 2767.31 4241.34 2740.37 4243 2692.33 4236.44 2646.83 4255.58 2621.88 4243 2553.83 4230.42 2485.78 4253.55 2465.55 4243 2409.67Z" stroke="#000000" stroke-width="13.75" stroke-linejoin="round" stroke-miterlimit="10" fill="none" fill-rule="evenodd"/><text font-family="DengXian,DengXian_MSFontService,sans-serif" font-weight="400" font-size="64" transform="matrix(1 0 0 1 4310.42 2534)">Python</text><text font-family="DengXian,DengXian_MSFontService,sans-serif" font-weight="400" font-size="64" transform="matrix(1 0 0 1 4504.06 2534)">脚本实现医疗</text><text font-family="DengXian,DengXian_MSFontService,sans-serif" font-weight="400" font-size="64" transform="matrix(1 0 0 1 4310.99 2611)">行业专用数据的处理</text><path d="M4542 1173C4549 1142.79 4564.19 1120.66 4592.89 1122 4636.46 1120.27 4719.68 1141.38 4768.93 1122 4818.18 1102.62 4857.01 1129.15 4920.05 1122 4983.1 1114.85 5031.39 1131.44 5091.11 1122 5112.44 1122.42 5142.12 1146.8 5142 1173 5147.88 1247.63 5121.42 1318.32 5142 1377 5143.42 1411.93 5125.92 1424.93 5091.11 1428 5026.93 1429.82 4984.99 1422.86 4939.98 1428 4894.98 1433.14 4825.84 1414.62 4773.91 1428 4721.99 1441.38 4637.62 1424.6 4592.89 1428 4560.84 1426.9 4540.07 1407.54 4542 1377 4529.87 1304.65 4554.55 1237.12 4542 1173Z" stroke="#000000" stroke-width="13.75" stroke-linejoin="round" stroke-miterlimit="10" fill="none" fill-rule="evenodd"/><text font-family="DengXian,DengXian_MSFontService,sans-serif" font-weight="400" font-size="64" transform="matrix(1 0 0 1 4700.05 1258)">大模型</text><text font-family="DengXian,DengXian_MSFontService,sans-serif" font-weight="400" font-size="64" transform="matrix(1 0 0 1 4892.55 1258)">Api</text><text font-family="DengXian,DengXian_MSFontService,sans-serif" font-weight="400" font-size="64" transform="matrix(1 0 0 1 4617.55 1335)">（本地或在线）</text></g></svg>